<svg xmlns="http://www.w3.org/2000/svg" viewBox="0 0 512 512">
  <path fill="#FF8C00" d="M464 256c0-13.3-10.7-24-24-24H352c-13.3 0-24 10.7-24 24s10.7 24 24 24h88c13.3 0 24-10.7 24-24zM72 232H48c-13.3 0-24 10.7-24 24s10.7 24 24 24h24c13.3 0 24-10.7 24-24s-10.7-24-24-24zM432 96H312c-13.3 0-24 10.7-24 24v112H224V120c0-13.3-10.7-24-24-24H80c-13.3 0-24 10.7-24 24v272c0 13.3 10.7 24 24 24h120c13.3 0 24-10.7 24-24V280h64v112c0 13.3 10.7 24 24 24h120c13.3 0 24-10.7 24-24V120c0-13.3-10.7-24-24-24z"/>
</svg>
